<svg version="1" xmlns="http://www.w3.org/2000/svg" width="800" height="800" viewBox="0 0 600.000000 600.000000"><path d="M293.1 73.3c-3.3 5.1-6.1 9.6-6.1 10 0 .3-5.1 8.5-11.2 18.1-6.2 9.6-16.2 25.4-22.3 35.1-6 9.6-14.4 22.8-18.5 29.3-4.2 6.4-10.5 16.4-14 22.2-3.5 5.8-10.2 16.5-14.9 23.7-4.7 7.3-13.5 21.2-19.6 30.9-6 9.6-15.2 24.2-20.4 32.2-5.2 8.1-10.9 17.3-12.8 20.5-1.9 3.2-7.7 12.5-12.8 20.5-5.2 8.1-13.9 21.9-19.5 30.7s-14.4 22.7-19.7 31c-5.3 8.2-11 17.2-12.6 20-1.7 2.7-7.1 11.3-12 19-5 7.7-10.4 16.5-12.2 19.5-1.7 3.1-7.2 11.8-12.1 19.5-8.1 12.6-13.5 21-38 60-3.8 6-7.7 11.8-8.6 12.7-1 1-1.8 2.7-1.8 3.8 0 2 .7 2 296 2s296 0 296-2c0-1.1-.4-2-.9-2-.9 0-4.4-5.3-26.4-40.3-6.2-9.7-13.8-21.9-17-27-3.2-5-8.3-13-11.2-17.7-3-4.7-9.9-15.7-15.5-24.5-5.5-8.8-12.5-19.8-15.4-24.5-2.9-4.7-8.7-13.9-12.9-20.5-9.6-15.1-24.5-38.7-39.2-62-6.2-9.9-16.2-25.6-22.1-34.9-6-9.3-11.2-17.6-11.5-18.5-.4-.9-3.8-6.3-7.6-12.1s-10.4-16.1-14.7-23c-4.2-6.9-11.3-18.1-15.6-25-4.4-6.9-12.6-19.8-18.2-28.8-5.7-9-14.8-23.4-20.4-32-5.5-8.6-10.7-16.8-11.4-18.2-.7-1.4-5.7-9.3-11.2-17.7-5.4-8.3-11.3-17.6-13.1-20.7-6.5-11.1-11.2-18.6-11.8-18.6-.4 0-3.4 4.2-6.8 9.3zm.9 103.4l-.1 82.8-10.2 9.4c-5.6 5.2-14.5 13.5-19.8 18.5-8.8 8.3-21.2 19.9-30.7 28.5-2 1.8-6.8 6.3-10.5 9.9l-6.8 6.6-27.5-13.7c-31.4-15.7-28.8-12.6-20.3-25.3 2.6-3.9 7.6-11.8 11-17.5 3.4-5.7 9.7-15.6 13.9-21.9 4.2-6.3 8.5-13 9.5-14.9.9-1.9 6.3-10.5 11.9-19.2 5.5-8.8 15-23.6 21-33.1 24.4-38.9 34-54.1 43.4-68.8 5.4-8.5 10.9-17.4 12.2-19.8 1.3-2.3 2.5-4.2 2.7-4.2.2 0 .3 37.2.3 82.7zm27.8-56.5c5.6 8.7 10.2 16 10.2 16.3 0 .3 4.8 8.2 10.8 17.5 20.2 31.7 23.7 37.5 23.7 38.7 0 .6-11.2 11.3-25 23.8-13.7 12.5-27.4 25-30.2 27.7l-5.3 5V94.5l2.8 5c1.6 2.7 7.4 12.1 13 20.7zm54.2 85.9c0 .5 4.1 7.3 9.1 15 5 7.8 10.6 16.7 12.4 19.8 1.8 3.1 7.9 12.9 13.6 21.9 21.9 34.2 28.5 44.6 31 49.1 1.4 2.5 6 9.8 10.2 16.2 4.2 6.4 10 15.7 13 20.7 4.6 7.6 5.2 9.2 3.8 9.7-6.4 2.5-49.5 17.7-50.9 18-.9.1-15 5-31.2 10.8-39.8 14.2-36.8 13.5-43.8 9.6-8.2-4.5-31.2-17-34.4-18.6l-2.8-1.4V268.2l33.7-32.6c26.4-25.5 33.9-32.3 35-31.5.7.6 1.3 1.5 1.3 2zm-82.2 118.4c.1 26.1-.1 47.5-.3 47.5-.2 0-3.4-1.7-7.2-3.9-3.7-2.1-14.2-7.6-23.3-12.3-9.1-4.7-20.7-10.7-25.8-13.4l-9.2-4.9 6.2-5.5c3.5-3 13.9-12.7 23.3-21.5 15.6-14.7 35.8-33.4 36.1-33.5.1 0 .2 21.4.2 47.5zM184.9 331l20.2 10.1-5.3 5.2c-3 2.9-13.7 12.8-23.8 22.2-19.2 17.7-30.6 28.3-42.5 39.4-3.9 3.6-15.1 14-25 23.1-9.8 9.1-27.6 25.5-39.5 36.6-11.9 11-22.2 20.4-23 20.9-1.7 1.1-1.5.7 33-54 5.6-8.8 13.4-21.2 17.4-27.5 3.9-6.3 9.3-14.7 11.9-18.7 2.6-4 4.7-7.4 4.7-7.8 0-.3 5-8.2 11-17.5 6.1-9.4 11-17.3 11-17.6 0-.3 4.3-7.2 9.6-15.4l9.6-15 5.2 3c2.9 1.6 14.4 7.4 25.5 13zm82.8 41.9c3.9 2.2 7.4 3.7 7.7 3.4.3-.4.6 0 .6.7s.3 1 .7.7c.3-.4 4.1 1.2 8.5 3.5l7.8 4.2.2 11.8c.5 23.9.4 25.1-1.2 25.4-.8.1-12.3 4.1-25.5 8.9-13.2 4.8-28.5 10.2-34 12-5.5 1.8-22 7.6-36.7 12.9-14.6 5.3-27.1 9.6-27.6 9.6s-11.3 3.8-23.8 8.3c-12.6 4.6-26.7 9.6-31.4 11.2-15.1 5-24.1 8.1-46.5 16.3-12.1 4.4-23 8.2-24.2 8.6-2.1.7 3.7-5.2 18.7-18.9 21.6-19.8 71.9-66.2 85.4-79 8.8-8.3 18-16.8 20.5-18.9 2.5-2.2 9.1-8.3 14.6-13.5 5.5-5.3 12.6-11.9 15.7-14.6 3.1-2.8 8.8-8 12.6-11.7l7-6.8 21.8 11c12.1 6 25.1 12.7 29.1 14.9zm215.2 3.3c4.8 7.9 20 31.8 37.6 58.9 6.1 9.4 15.7 24.4 21.5 33.5 5.8 9.1 14.4 22.6 19.2 30 4.8 7.4 8.5 13.4 8.2 13.4-.4 0-9.3-4.6-19.8-10.3-10.5-5.6-21.1-11.1-23.6-12.2-2.5-1.1-10.1-5-17-8.6-11.6-6.1-39-20.3-75.5-38.9-16-8.2-42.4-21.8-56.8-29.4-4.8-2.5-8.2-4.8-7.5-5 .7-.3 5.4-1.9 10.3-3.7 8.4-3 10.8-3.8 12-3.9.3 0 2.2-.7 4.2-1.5 2.1-.7 15.5-5.7 29.8-10.9 14.3-5.3 26.4-9.6 27-9.6.5 0 6.2-2 12.5-4.4 6.3-2.5 12-4.5 12.5-4.5.6-.1 3 3.2 5.4 7.1zm-159.7 26.3l8.8 4.8-5.3 1.9c-2.8 1.1-6.3 2.3-7.7 2.8-1.4.4-4.9 1.7-7.7 2.9L306 417v-24.2l4.3 2.4c2.3 1.4 8.1 4.6 12.9 7.3zm49.5 24.1c21.2 10.9 65.7 33.6 74.8 38.2 2.2 1.1 6.3 3.2 9.1 4.5 5.1 2.4 25.1 12.9 33.2 17.3 2.3 1.3 4.7 2.4 5.3 2.4.6 0 9.1 4.3 19 9.5 20.3 10.8 20.6 11 31.1 16 4.2 1.9 9.5 4.6 11.6 5.8l3.9 2.2-30.1.3c-16.6.2-73.9.1-127.4-.3l-97.2-.7.2-46 .3-46 7.8-2.9c4.3-1.6 9-3.1 10.5-3.4 1.5-.2 7.4-2.2 13.2-4.4 5.8-2.2 10.8-4.1 11.2-4.1.4 0 10.9 5.2 23.5 11.6zM293 468.7c0 18.6.3 38.2.7 43.5l.6 9.8-122.4-.1c-67.3 0-121.7-.3-120.9-.6.8-.3 6.8-2.5 13.3-4.9 6.5-2.4 12.8-4.6 14-4.8 2.1-.4 22.6-7.8 36.7-13.3 7.7-3.1 22.8-8.3 25.3-8.8 1-.2 8.4-2.9 16.5-5.9C185.9 472.7 199 468 200 468c.5 0 8.7-2.9 18.2-6.4 29.2-10.8 35.9-13.3 48.3-17.5 6.6-2.2 14.9-5.1 18.5-6.5 3.6-1.3 6.8-2.5 7.3-2.5.4-.1.7 15.1.7 33.6z"/></svg>