<?xml version="1.0" encoding="utf-8"?>
<svg version="1.2" baseProfile="tiny-ps" id="logo" xmlns="http://www.w3.org/2000/svg" xmlns:xlink="http://www.w3.org/1999/xlink" viewBox="0 0 720 720" xml:space="preserve">
<title>Aeon Laser USA</title>
<rect id="background" fill="#231F20" width="720" height="720"/>
<g id="usa">
	<path id="u_1_" fill="#EA5529" d="M422.519,597.83v-44.078h8.714v43.696c0,9.195,5.433,15.263,15.925,15.263
		c10.493,0,15.927-6.067,15.927-15.263v-43.696h8.62v44.078c0,14.407-10.212,23.506-24.547,23.506
		C432.824,621.336,422.519,612.237,422.519,597.83"/>
	<path id="s_2_" fill="#EA5529" d="M480.979,604.775l7.613-4.429c2.379,7.413,8.089,12.228,17.796,12.228
		c9.422,0,14.084-4.333,14.084-10.399c0-6.932-5.9-9.244-15.702-12.324c-10.659-3.465-20.937-6.837-20.937-19.354
		c0-12.133,9.802-19.065,20.937-19.065c10.943,0,18.842,6.26,22.555,14.732l-7.423,4.333c-2.379-5.777-7.044-10.399-15.132-10.399
		c-7.139,0-12.085,3.851-12.085,10.013c0,6.261,4.661,8.57,13.988,11.556c11.609,3.852,22.555,7.318,22.555,20.315
		c0,11.844-9.422,19.354-23.03,19.354C493.54,621.336,484.499,614.886,480.979,604.775"/>
	<path id="a_4_" fill="#EA5529" d="M575.982,606.455h-29.512l-5.34,14.881h-9.274l24.451-66.353h9.838l24.451,66.353h-9.275
		L575.982,606.455z M572.984,598.208l-11.806-32.702l-11.709,32.702H572.984z"/>
</g>
<g id="laser_2_">
	<polygon id="l_1_" fill="#FFFFFF" points="169.036,614.963 169.036,621.336 130.75,621.336 130.75,553.748 137.622,553.748 
		137.622,614.963 	"/>
	<path id="a_5_" fill="#FFFFFF" d="M220.899,604.729h-32.593l-6.381,16.606h-7.265l26.409-67.589h7.067l26.409,67.589h-7.265
		L220.899,604.729z M218.445,598.356l-13.842-36.208l-13.842,36.208H218.445z"/>
	<path id="s_3_" fill="#FFFFFF" d="M237.487,604.826l5.891-3.379c2.455,8.11,8.934,13.324,19.73,13.324
		c10.407,0,16.2-4.924,16.2-12.167c0-7.82-6.774-10.331-16.885-13.613c-11.191-3.669-21.991-6.565-21.991-19.021
		c0-11.877,9.72-18.539,21.106-18.539c11.291,0,19.145,6.566,22.678,14.578l-5.792,3.187c-2.553-6.081-7.854-11.198-16.886-11.198
		c-8.246,0-14.234,4.248-14.234,11.683c0,7.338,5.89,9.655,15.217,12.648c12.468,4.055,23.659,7.53,23.659,20.083
		c0,11.587-9.424,18.924-23.169,18.924C250.347,621.336,241.021,615.06,237.487,604.826"/>
	<polygon id="e_3_" fill="#FFFFFF" points="337.717,614.963 337.717,621.336 297.466,621.336 297.466,553.748 337.226,553.748 
		337.226,560.121 304.338,560.121 304.338,584.066 334.771,584.066 334.771,590.439 304.338,590.439 304.338,614.963 	"/>
	<path id="r_1_" fill="#FFFFFF" d="M377.289,594.301h-19.242v27.035h-6.872v-67.589h27.488c11.388,0,20.615,9.077,20.615,20.277
		c0,9.173-6.283,16.993-14.824,19.408l16.787,27.903h-7.853L377.289,594.301z M358.047,587.928h20.616
		c7.56,0,13.744-6.275,13.744-13.903c0-7.725-6.185-13.904-13.744-13.904h-20.616V587.928z"/>
</g>
<g id="aeon_1_">
	<polygon id="n_1_" fill="#FFFFFF" points="590.596,419.766 590.596,540.679 571.008,540.679 515.043,466.749 515.043,540.679 
		489.298,540.679 489.298,419.766 508.886,419.766 564.853,493.522 564.853,419.766 	"/>
	<path id="o_1_" fill="#FFFFFF" d="M357.721,477.805c0-35.41,26.18-62.875,59.027-62.875c32.849,0,59.192,27.465,59.192,62.875
		c0,35.237-26.344,62.874-59.192,62.874C383.9,540.679,357.721,513.042,357.721,477.805 M453.499,477.805
		c0-23.319-16.098-39.729-36.751-39.729c-20.652,0-36.749,16.409-36.749,39.729c0,23.146,16.097,39.557,36.749,39.557
		C437.401,517.361,453.499,500.951,453.499,477.805"/>
	<polygon id="e_2_" fill="#FFFFFF" points="344.363,517.879 344.363,540.679 262.839,540.679 262.839,419.766 343.422,419.766 
		343.422,442.566 288.823,442.566 288.823,468.304 338.715,468.304 338.715,490.759 288.823,490.759 288.823,517.879 	"/>
	<path id="a_3_" fill="#FFFFFF" d="M215.278,518.791h-49.704l-7.481,21.888h-26.544l43.646-121.592h30.463l43.823,121.592H222.76
		L215.278,518.791z M207.618,496.385l-17.102-49.68l-17.102,49.68H207.618z"/>
</g>
<path id="prism_1_" fill="#FFFFFF" d="M361.182,16.907c-77.538,123.731-155.076,247.462-232.613,371.193h465.563
	C516.483,264.369,438.829,140.638,361.182,16.907 M246.674,215.627l41.605,21.257L159.008,355.036
	C188.23,308.566,217.452,262.097,246.674,215.627 M356.686,379.619c-65.037-0.058-130.074-0.116-195.11-0.174l195.204-69.299
	C356.75,333.304,356.715,356.461,356.686,379.619 M356.79,300.917l-205.516,72.967l145.267-132.782l60.283,30.805
	C356.812,281.577,356.803,291.247,356.79,300.917 M356.843,262.156l-53.453-27.312l53.546-48.944
	C356.906,211.316,356.871,236.739,356.843,262.156 M295.127,230.621l-43.812-22.381c35.271-56.089,70.538-112.184,105.811-168.273
	c-0.057,44.716-0.116,89.433-0.174,134.148L295.127,230.621z M365.816,40.03c16.732,26.698,33.465,53.401,50.197,80.099
	l-50.146,45.834C365.851,123.987,365.834,82.006,365.816,40.03 M365.874,177.735l54.832-50.121
	c25.742,41.065,51.478,82.138,77.214,123.203l-96.332,34.201l-35.679-18.227C365.897,237.105,365.887,207.423,365.874,177.735
	 M365.915,276.548l24.396,12.469l-24.391,8.661C365.921,290.633,365.915,283.594,365.915,276.548 M365.956,379.625
	c-0.01-24.243-0.02-48.486-0.029-72.729l35.04-12.439l167.035,85.348C500.655,379.747,433.303,379.688,365.956,379.625
	 M412.236,290.459l90.411-32.098c24.061,38.39,48.12,76.779,72.179,115.168L412.236,290.459z"/>
</svg>
