<svg xmlns="http://www.w3.org/2000/svg" width="200" height="200" viewBox="0 0 1000 1000" version="1.1"><path d="M 496.479 149.500 C 496.479 199, 496.601 219.104, 496.750 194.175 C 496.899 169.246, 496.899 128.746, 496.750 104.175 C 496.601 79.604, 496.479 100, 496.479 149.500 M 508.478 144 C 508.478 190.475, 508.600 209.488, 508.750 186.250 C 508.899 163.013, 508.899 124.988, 508.750 101.750 C 508.600 78.513, 508.478 97.525, 508.478 144 M 508.470 304.500 C 508.470 338.050, 508.596 351.630, 508.750 334.678 C 508.903 317.726, 508.903 290.276, 508.749 273.678 C 508.595 257.080, 508.470 270.950, 508.470 304.500 M 496.402 271 C 496.402 279.525, 496.556 283.012, 496.743 278.750 C 496.931 274.488, 496.931 267.512, 496.743 263.250 C 496.556 258.988, 496.402 262.475, 496.402 271 M 508 391.941 C 508 399.609, 508.337 406.091, 508.750 406.345 C 509.163 406.600, 509.500 400.327, 509.500 392.405 C 509.500 384.482, 509.163 378, 508.750 378 C 508.337 378, 508 384.273, 508 391.941 M 508.463 468 C 508.463 495.225, 508.592 506.363, 508.749 492.750 C 508.906 479.137, 508.906 456.863, 508.749 443.250 C 508.592 429.637, 508.463 440.775, 508.463 468 M 233 517.250 C 233 517.663, 292.288 517.893, 364.750 517.763 C 437.212 517.632, 479.850 517.408, 459.500 517.264 C 363.241 516.585, 233 516.577, 233 517.250 M 514.250 517.735 C 516.862 517.941, 521.138 517.941, 523.750 517.735 C 526.362 517.529, 524.225 517.360, 519 517.360 C 513.775 517.360, 511.637 517.529, 514.250 517.735 M 675.477 654 C 675.477 698.825, 675.600 717.163, 675.750 694.750 C 675.900 672.338, 675.900 635.663, 675.750 613.250 C 675.600 590.837, 675.477 609.175, 675.477 654 M 710.463 685 C 710.463 712.225, 710.592 723.362, 710.749 709.750 C 710.906 696.138, 710.906 673.862, 710.749 660.250 C 710.592 646.638, 710.463 657.775, 710.463 685 M 471.400 652.500 C 471.401 660.750, 471.556 663.992, 471.744 659.704 C 471.932 655.417, 471.931 648.667, 471.742 644.704 C 471.552 640.742, 471.399 644.250, 471.400 652.500 M 497.349 651 C 497.349 655.675, 497.522 657.587, 497.732 655.250 C 497.943 652.913, 497.943 649.087, 497.732 646.750 C 497.522 644.413, 497.349 646.325, 497.349 651 M 657.349 651 C 657.349 655.675, 657.522 657.587, 657.732 655.250 C 657.943 652.913, 657.943 649.087, 657.732 646.750 C 657.522 644.413, 657.349 646.325, 657.349 651 M 420.186 668.748 C 429.363 668.913, 444.663 668.913, 454.186 668.749 C 463.709 668.584, 456.200 668.449, 437.500 668.449 C 418.800 668.449, 411.009 668.583, 420.186 668.748 M 236.653 706.750 C 236.398 707.163, 246.159 707.385, 258.344 707.245 C 300.395 706.761, 304.389 706.432, 270.809 706.216 C 252.279 706.097, 236.909 706.337, 236.653 706.750 M 686.994 751.934 C 673.825 755.940, 665.905 769.098, 668.971 781.878 C 671.243 791.350, 678.248 796.694, 696 802.499 C 713.570 808.245, 717.500 811.357, 717.500 819.524 C 717.500 828.697, 711.479 833, 698.646 833 C 688.528 833, 681.827 829.623, 677.435 822.310 L 674.370 817.207 669.689 819.854 C 667.114 821.309, 665.006 823.181, 665.004 824.013 C 664.998 826.392, 671.594 835.575, 675.105 838.075 C 688.450 847.578, 710.620 847.419, 721.641 837.742 C 730.919 829.596, 732.573 814.954, 725.313 805.234 C 721.988 800.783, 714.506 796.693, 702 792.493 C 688.309 787.894, 683.938 785.377, 681.694 780.797 C 677.955 773.164, 682.631 765.103, 691.958 763.103 C 701.998 760.949, 711.057 765.156, 716.551 774.525 C 717.537 776.206, 717.894 776.146, 722.301 773.564 C 724.886 772.049, 727 770.480, 727 770.076 C 727 769.673, 725.636 767.283, 723.968 764.766 C 717.893 755.594, 708.639 750.945, 696.739 751.086 C 692.758 751.133, 688.372 751.515, 686.994 751.934 M 415.458 754.250 C 415.194 754.938, 415.096 775.750, 415.239 800.500 L 415.500 845.500 443 845.500 L 470.500 845.500 470.598 841.243 L 470.696 836.985 470.291 840.993 L 469.885 845 442.923 845 L 415.961 845 416.230 799 C 416.379 773.700, 416.373 753, 416.219 753 C 416.064 753, 415.722 753.563, 415.458 754.250 M 468.846 757.527 L 469.198 761.961 446.849 762.261 L 424.500 762.560 447 762.530 L 469.500 762.500 469.818 758.618 C 469.993 756.483, 469.767 754.367, 469.315 753.915 C 468.863 753.463, 468.652 755.088, 468.846 757.527 M 488.458 754.250 C 488.194 754.938, 488.096 775.750, 488.239 800.500 L 488.500 845.500 492.500 845.586 L 496.500 845.671 492.730 845.277 L 488.961 844.883 489.230 798.941 C 489.379 773.673, 489.373 753, 489.219 753 C 489.064 753, 488.722 753.563, 488.458 754.250 M 585 785.818 C 585 820.775, 585.480 824.477, 591.062 832.590 C 594.500 837.588, 601.771 842.431, 608.272 844.056 C 615.013 845.740, 628.412 844.839, 634.051 842.321 C 640.638 839.380, 645.527 834.664, 648.710 828.182 L 651.500 822.500 651.810 788.250 L 652.120 754 646.060 754 L 640 754 640 786.032 C 640 812.596, 639.737 818.693, 638.462 821.746 C 635.129 829.722, 628.928 833.317, 618.500 833.317 C 609.738 833.317, 604.166 830.718, 600.251 824.805 L 597.500 820.650 597.200 787.325 L 596.900 754 590.950 754 L 585 754 585 785.818 M 766.596 755.845 C 765.996 756.815, 735.018 840.569, 734.248 843.301 C 733.791 844.921, 734.377 845.072, 740.078 844.801 L 746.416 844.500 749.849 834.730 L 753.282 824.959 773.293 825.230 L 793.304 825.500 796.788 835.250 L 800.272 845 806.592 845 L 812.911 845 811.569 841.250 C 810.830 839.188, 803.823 820.175, 795.997 799 C 788.170 777.825, 781.326 759.263, 780.786 757.750 C 779.855 755.142, 779.476 755, 773.461 755 C 769.972 755, 766.883 755.380, 766.596 755.845 M 505.797 762.745 C 510.361 762.930, 517.561 762.929, 521.797 762.742 C 526.034 762.555, 522.300 762.404, 513.500 762.405 C 504.700 762.406, 501.234 762.559, 505.797 762.745 M 772 772.015 C 772 772.573, 768.850 781.855, 765 792.641 C 761.150 803.427, 758 812.645, 758 813.126 C 758 813.607, 765.023 814, 773.607 814 C 788.069 814, 789.163 813.872, 788.520 812.250 C 788.138 811.288, 784.646 801.612, 780.760 790.750 C 776.874 779.888, 773.313 771, 772.847 771 C 772.381 771, 772 771.457, 772 772.015 M 466.160 798.730 L 466 802.959 445.250 803.251 L 424.500 803.543 445.281 803.771 C 468.116 804.023, 467.509 804.190, 466.730 797.845 C 466.359 794.814, 466.305 794.896, 466.160 798.730 M 189.866 845.268 C 190.289 845.690, 202.080 845.914, 216.068 845.766 L 241.500 845.497 215.299 844.999 C 200.888 844.724, 189.443 844.845, 189.866 845.268 M 249.655 845.250 C 249.909 845.663, 252.090 846, 254.500 846 C 256.910 846, 259.091 845.663, 259.345 845.250 C 259.600 844.837, 257.420 844.500, 254.500 844.500 C 251.580 844.500, 249.400 844.837, 249.655 845.250" stroke="none" fill="#ea5529" fill-rule="evenodd"/><path d="M 458.500 95.760 C 434.850 133.553, 406.470 178.881, 395.434 196.488 C 384.398 214.094, 358.031 256.175, 336.842 290 C 315.653 323.825, 275.889 387.275, 248.476 431 C 221.064 474.725, 196.035 514.663, 192.856 519.750 L 187.075 529 502.038 529 C 675.267 529, 817 528.793, 817 528.541 C 817 528.289, 801.100 502.751, 781.667 471.791 C 692.119 329.129, 614.675 205.731, 582.224 154 C 512.209 42.389, 502.493 27.011, 502 27.028 C 501.725 27.037, 482.150 57.966, 458.500 95.760 M 493.666 61.750 C 465.977 105.758, 401.767 207.914, 383.198 237.500 C 369.735 258.950, 357.389 278.444, 355.763 280.820 C 354.137 283.196, 352.963 285.275, 353.154 285.440 C 353.344 285.605, 366.786 292.533, 383.025 300.837 L 412.551 315.934 454.775 277.363 L 497 238.792 497 148.396 C 497 98.678, 496.781 58, 496.513 58 C 496.244 58, 494.963 59.688, 493.666 61.750 M 508 142.873 L 508 228.145 510.303 226.323 C 515.586 222.140, 576 166.553, 576 165.873 C 576 165.057, 510.376 60.076, 508.912 58.550 C 508.363 57.978, 508 91.511, 508 142.873 M 577.391 180.795 C 574.581 183.383, 557.818 198.724, 540.141 214.887 L 508 244.274 508 304.577 L 508 364.880 532.486 377.242 L 556.972 389.604 621.986 366.553 C 657.744 353.876, 687 343.196, 687 342.820 C 687 342.445, 668.421 312.520, 645.714 276.319 C 623.006 240.119, 599.571 202.738, 593.636 193.250 C 587.700 183.762, 582.767 176.020, 582.672 176.045 C 582.577 176.070, 580.201 178.208, 577.391 180.795 M 459.616 288.540 C 440.027 306.438, 424 321.250, 424 321.458 C 424 322.006, 495.135 358.209, 495.455 357.824 C 496.188 356.944, 496.804 256, 496.077 256 C 495.612 256, 479.205 270.643, 459.616 288.540 M 336.786 311.250 C 331.537 319.637, 306.427 359.575, 280.987 400 C 255.547 440.425, 233.469 475.514, 231.926 477.977 C 230.383 480.439, 229.303 482.636, 229.526 482.859 C 229.750 483.083, 232.760 480.564, 236.216 477.261 C 239.672 473.959, 258.720 456.462, 278.546 438.378 C 298.371 420.295, 332.541 389.075, 354.480 369 C 376.418 348.925, 396.338 330.750, 398.745 328.611 C 401.153 326.472, 402.757 324.373, 402.311 323.947 C 401.044 322.734, 348.444 296, 347.327 296 C 346.779 296, 342.036 302.863, 336.786 311.250 M 377.391 363.654 C 357.101 382.203, 330.143 406.857, 317.484 418.440 C 304.825 430.023, 277.271 455.221, 256.253 474.435 C 235.234 493.650, 218.153 509.487, 218.295 509.629 C 218.437 509.771, 225.291 507.463, 233.527 504.501 C 247.308 499.543, 382.793 451.405, 462 423.324 L 495.500 411.448 495.767 391.474 L 496.035 371.500 455.981 351 C 433.951 339.725, 415.557 330.371, 415.105 330.214 C 414.653 330.056, 397.682 345.104, 377.391 363.654 M 665 363.401 C 649.325 369, 621.987 378.736, 604.250 385.035 C 586.513 391.335, 572.002 396.717, 572.004 396.995 C 572.006 397.273, 578.869 400.971, 587.254 405.213 C 595.639 409.456, 644.770 434.536, 696.434 460.946 C 748.098 487.357, 790.530 508.804, 790.727 508.606 C 790.924 508.409, 781.241 492.554, 769.210 473.374 C 757.178 454.193, 735.504 419.600, 721.046 396.500 C 706.588 373.400, 694.475 354.212, 694.129 353.861 C 693.783 353.509, 680.675 357.802, 665 363.401 M 508.222 392.157 C 508.394 401.043, 508.880 406.423, 509.500 406.297 C 512.279 405.732, 540.979 395.430, 540.971 395 C 540.962 394.551, 511.372 378.991, 508.943 378.157 C 508.300 377.937, 508.043 382.926, 508.222 392.157 M 542.500 406.851 C 535.350 409.468, 524.658 413.322, 518.741 415.417 L 507.981 419.224 508.241 468.362 L 508.500 517.500 645.500 517.733 L 782.500 517.965 762.500 507.678 C 741.115 496.677, 710.352 480.961, 633 441.519 C 606.325 427.918, 578.116 413.462, 570.313 409.395 C 562.510 405.328, 555.985 402.021, 555.813 402.046 C 555.641 402.071, 549.650 404.233, 542.500 406.851 M 488.500 425.973 C 468.956 433.114, 239.726 514.485, 236.750 515.338 C 234.688 515.929, 233 516.770, 233 517.207 C 233 517.643, 292.175 518, 364.500 518 L 496 518 496 471 C 496 434.028, 495.733 424.016, 494.750 424.073 C 494.063 424.113, 491.250 424.968, 488.500 425.973 M 560.500 567.568 C 556.650 568.410, 548.948 571.305, 543.383 574.002 C 520.756 584.969, 504.253 607.224, 499.289 633.466 C 497.183 644.594, 498 665.749, 500.925 675.829 C 510.247 707.961, 535.296 730.425, 566.970 735.056 C 592.953 738.855, 620.867 727.728, 638.040 706.725 C 643.901 699.556, 652.078 683.467, 654.671 674 C 657.204 664.752, 657.244 637.192, 654.738 628.121 C 650.035 611.099, 644.432 601.449, 632 588.958 C 621.653 578.563, 613.024 573.260, 599.500 568.988 C 590.219 566.057, 570.667 565.345, 560.500 567.568 M 248.718 575.230 C 246.422 581.840, 192.283 732.273, 191.489 734.250 C 190.835 735.878, 192.040 736, 208.752 736 L 226.719 736 231.717 721.250 L 236.714 706.500 270.607 706.500 L 304.500 706.500 309.500 721 L 314.500 735.500 332.373 735.774 C 349.072 736.029, 350.214 735.931, 349.765 734.274 C 349.501 733.298, 338.812 703.475, 326.012 668 C 313.211 632.525, 300.150 596.300, 296.985 587.500 L 291.233 571.500 270.717 571.230 L 250.202 570.960 248.718 575.230 M 369 654 L 369 736 424 736 L 479 736 479 720.500 L 479 705 441.500 705 L 404 705 404 686.500 L 404 668 437.750 668.001 L 471.500 668.003 471.200 653.001 L 470.900 638 437.450 638 L 404 638 404 620.500 L 404 603 441 603 L 478 603 478 587.500 L 478 572 423.500 572 L 369 572 369 654 M 676 654.024 L 676 736.047 693.037 735.774 L 710.075 735.500 710.019 685.518 C 709.971 641.769, 710.145 635.720, 711.419 637.018 C 712.799 638.425, 741.680 676.436, 772.378 717.250 L 786.481 736 799.741 736 L 813 736 813 653.976 L 813 571.953 795.750 572.226 L 778.500 572.500 778 621.977 L 777.500 671.453 757.043 644.477 C 745.792 629.639, 728.783 607.263, 719.244 594.750 L 701.902 572 688.951 572 L 676 572 676 654.024 M 565.618 598.112 C 539.993 604.128, 523.287 632.276, 528.383 660.850 C 531.818 680.108, 544.080 695.883, 559.971 701.490 C 588.432 711.531, 617.604 695.718, 625.525 665.955 C 627.412 658.864, 627.404 642.972, 625.511 635.703 C 620.727 617.335, 607.030 603.020, 589.869 598.453 C 583.932 596.873, 571.634 596.700, 565.618 598.112 M 259.214 641.779 C 253.029 659.776, 247.976 674.837, 247.985 675.250 C 247.993 675.663, 258.398 676, 271.107 676 C 292.707 676, 294.169 675.886, 293.532 674.250 C 293.156 673.288, 288.088 658.550, 282.270 641.500 C 276.451 624.450, 271.413 610.176, 271.075 609.779 C 270.736 609.383, 265.398 623.783, 259.214 641.779 M 355.183 752.902 C 344.809 756.485, 339.060 764.738, 339.022 776.102 C 339.005 781.327, 339.472 783.404, 341.261 786.060 C 345.160 791.845, 351.239 795.582, 363.196 799.545 C 379.322 804.889, 384.068 807.174, 387.752 811.370 C 390.455 814.448, 391 815.878, 391 819.887 C 391 826.270, 387.966 830.771, 381.499 833.982 C 374.647 837.385, 363.843 837.413, 356.206 834.049 C 350.701 831.623, 344.373 825.335, 343.355 821.277 C 343.040 820.025, 342.494 819.002, 342.142 819.004 C 341.138 819.010, 335 822.904, 335 823.535 C 335 824.523, 338.236 830.399, 340.366 833.281 C 347.654 843.139, 367.002 847.745, 381.791 843.142 C 389.646 840.697, 394.332 836.981, 397.451 830.722 C 402.452 820.686, 400.078 808.976, 391.827 802.979 C 386.558 799.149, 383.682 797.874, 369.203 792.948 C 351.512 786.930, 348 783.987, 348 775.183 C 348 765.524, 355.219 759.588, 366.967 759.588 C 375.255 759.588, 381.998 762.634, 386.028 768.198 C 387.595 770.360, 389.066 772.663, 389.297 773.315 C 389.828 774.814, 397 771.256, 397 769.493 C 397 767.347, 391.083 760.072, 386.833 756.994 C 378.596 751.027, 365.509 749.335, 355.183 752.902 M 190 799.500 L 190 845 215.750 845 L 241.500 845 241.500 841 L 241.500 837 220.250 837 L 199 837 199 795.500 L 199 754 194.500 754 L 190 754 190 799.500 M 284.701 755.250 C 279.572 767.755, 250 843.922, 250 844.629 C 250 844.894, 252.097 844.972, 254.661 844.805 L 259.321 844.500 263.411 833.736 L 267.500 822.971 289.895 823.236 L 312.290 823.500 316.395 834.231 L 320.500 844.962 325.333 844.981 C 327.992 844.991, 330.017 844.608, 329.833 844.129 C 329.650 843.650, 321.655 823.175, 312.066 798.629 L 294.632 754 289.923 754 C 287.096 754, 285.009 754.500, 284.701 755.250 M 416 799.500 L 416 845 443 845 L 470 845 470 841 L 470 837 447.500 837 L 425 837 425 820 L 425 803 445.500 803 L 466 803 466 799 L 466 795 445.500 795 L 425 795 425 778.500 L 425 762 447 762 L 469 762 469 758 L 469 754 442.500 754 L 416 754 416 799.500 M 489 799.500 L 489 845 493.500 845 L 498 845 498 827 L 498 809 511.250 809.038 L 524.500 809.076 535 827.019 L 545.500 844.962 550.832 844.981 L 556.163 845 554.158 841.750 C 545.215 827.251, 534 808.432, 534 807.925 C 534 807.583, 535.810 806.488, 538.022 805.490 C 542.808 803.332, 549.560 796.298, 551.652 791.291 C 555.657 781.705, 552.319 768.092, 544.215 760.958 C 537.292 754.864, 532.958 754, 509.318 754 L 489 754 489 799.500 M 498 780.980 L 498 800.129 515.410 799.814 L 532.821 799.500 536.590 796.447 C 547.186 787.864, 546.801 772.532, 535.807 765.251 C 531.752 762.566, 531.250 762.492, 514.826 762.166 L 498 761.831 498 780.980 M 282.012 785.250 C 277.970 795.837, 273.841 806.638, 272.836 809.250 L 271.008 814 289.857 814 L 308.706 814 299.853 790.950 C 294.984 778.272, 291 767.472, 291 766.950 C 291 763.237, 288.377 768.577, 282.012 785.250" stroke="none" fill="#ffffff" fill-rule="evenodd"/><path d="M 0 500.001 L 0 1000.002 500.250 999.751 L 1000.500 999.500 1000.751 499.750 L 1001.002 0 500.501 0 L 0 0 0 500.001 M 0.496 500.500 C 0.496 775.500, 0.610 887.851, 0.750 750.168 C 0.890 612.486, 0.890 387.486, 0.750 250.168 C 0.610 112.851, 0.496 225.500, 0.496 500.500 M 456.500 98.228 C 431.750 137.878, 397.519 192.635, 380.431 219.910 C 336.045 290.757, 261.065 410.405, 221.032 474.267 C 202.150 504.389, 186.881 529.139, 187.101 529.267 C 187.320 529.395, 329.272 529.275, 502.549 529 L 817.597 528.500 778.676 466.500 C 721.857 375.991, 666.423 287.652, 623.994 220 C 603.470 187.275, 580.562 150.787, 573.089 138.916 C 565.615 127.045, 546.675 96.803, 531 71.711 C 515.325 46.619, 502.275 26.100, 502 26.113 C 501.725 26.126, 481.250 58.578, 456.500 98.228 M 469.057 101.291 C 454.513 124.506, 429.595 164.200, 413.685 189.500 C 360.356 274.300, 354.966 282.925, 354.433 284.314 C 354.055 285.300, 362.030 289.834, 382.201 300.099 C 397.765 308.019, 411.064 314.646, 411.754 314.824 C 412.444 315.002, 422.746 306.227, 434.647 295.324 C 446.549 284.421, 465.110 267.478, 475.893 257.673 L 495.500 239.845 496 149.422 C 496.275 99.690, 496.275 59.018, 496 59.041 C 495.725 59.063, 483.600 78.076, 469.057 101.291 M 508.761 143.185 L 509.023 227.370 512.261 224.338 C 514.043 222.670, 526.300 211.488, 539.500 199.489 C 552.700 187.489, 566.317 175.003, 569.760 171.743 L 576.021 165.814 542.760 112.455 C 524.467 83.107, 509.275 59.074, 509 59.048 C 508.725 59.021, 508.618 96.883, 508.761 143.185 M 578.249 180.236 C 576.506 182.031, 560.228 197, 542.076 213.500 L 509.073 243.500 509.287 304.304 L 509.500 365.109 533.176 377.191 L 556.851 389.274 621.176 366.501 C 656.554 353.977, 685.803 343.453, 686.174 343.115 C 686.744 342.594, 667.136 310.956, 594.116 194.580 C 588.277 185.274, 583.032 177.506, 582.459 177.317 C 581.887 177.128, 579.992 178.441, 578.249 180.236 M 467 282.164 C 451.325 296.517, 435.250 311.238, 431.278 314.880 L 424.056 321.500 460.028 339.823 L 496 358.146 496 307.073 C 496 278.983, 495.887 256.016, 495.750 256.035 C 495.613 256.054, 482.675 267.812, 467 282.164 M 305 362.182 C 282.175 398.563, 255.705 440.742, 246.179 455.914 C 233.142 476.676, 229.802 482.609, 232.679 479.898 C 234.780 477.918, 252.475 461.734, 272 443.936 C 291.525 426.138, 317.609 402.333, 329.964 391.038 C 355.225 367.943, 401.086 326.081, 402.285 325.023 C 402.939 324.445, 350.629 296.984, 347.512 296.268 C 346.955 296.140, 327.825 325.801, 305 362.182 M 368.919 371.837 C 343.849 394.752, 305.623 429.700, 283.973 449.500 C 262.323 469.300, 238.904 490.675, 231.930 497 C 224.956 503.325, 219.341 508.610, 219.453 508.745 C 219.640 508.970, 256.363 496.004, 383 450.998 C 409.675 441.518, 444.775 429.045, 461 423.280 C 477.225 417.514, 491.738 412.349, 493.250 411.801 L 496 410.804 496 391.458 L 496 372.112 483.750 365.683 C 477.012 362.148, 458.675 352.712, 443 344.714 L 414.500 330.173 368.919 371.837 M 664.500 363.863 C 649.650 369.208, 622.987 378.736, 605.250 385.036 C 587.513 391.336, 573 396.724, 573 397.009 C 573 397.578, 587.841 405.204, 729.500 477.428 C 747.650 486.682, 769.017 497.651, 776.982 501.805 C 788.828 507.983, 791.179 508.916, 789.896 506.929 C 789.034 505.593, 770.858 476.600, 749.507 442.500 C 693.658 353.306, 694.435 354.517, 692.901 354.322 C 692.131 354.224, 679.350 358.518, 664.500 363.863 M 509 392.500 C 509 399.925, 509.171 406, 509.380 406 C 509.867 406, 534.616 397.303, 538.237 395.859 C 540.858 394.814, 540.321 394.434, 525.581 386.884 C 517.115 382.548, 509.921 379, 509.594 379 C 509.267 379, 509 385.075, 509 392.500 M 547.500 405.412 C 544.200 406.662, 534.188 410.284, 525.250 413.460 L 509 419.236 509 468.490 L 509 517.745 645.227 517.932 C 720.151 518.036, 781.239 517.935, 780.977 517.709 C 780.469 517.272, 756.985 505.167, 717 484.734 C 703.525 477.848, 662.030 456.641, 624.789 437.607 C 587.548 418.573, 556.273 403.031, 555.289 403.070 C 554.305 403.108, 550.800 404.162, 547.500 405.412 M 365.500 470.066 C 294.550 495.312, 236.050 516.164, 235.500 516.404 C 234.950 516.645, 293.337 516.878, 365.250 516.921 L 496 517 496 470.500 C 496 444.925, 495.663 424.037, 495.250 424.083 C 494.837 424.129, 436.450 444.821, 365.500 470.066 M 566.500 566.117 C 536.784 570.439, 512.013 591.780, 502.053 621.641 C 496.047 639.650, 495.726 659.279, 501.141 677.483 C 509.034 704.013, 529.635 724.920, 556 733.157 C 562.473 735.179, 565.485 735.492, 578 735.440 C 590.986 735.386, 593.336 735.099, 600.500 732.695 C 622.248 725.397, 639.870 709.549, 649.562 688.572 C 655.425 675.883, 657.368 666.524, 657.363 651 C 657.359 636.398, 656.023 628.897, 651.342 617.196 C 639.938 588.691, 616.326 570.014, 586.678 566.047 C 577.851 564.866, 575.033 564.875, 566.500 566.117 M 249.107 573.230 C 246.254 580.775, 191 735.102, 191 735.527 C 191 735.812, 199.175 735.922, 209.167 735.773 L 227.334 735.500 232.001 721.500 L 236.667 707.500 270.605 707.237 L 304.543 706.974 309.342 721.487 L 314.141 736 332.526 736 L 350.911 736 349.556 732.250 C 348.811 730.188, 337.404 698.575, 324.208 662 C 311.012 625.425, 298.254 590.100, 295.857 583.500 L 291.500 571.500 270.733 571.230 L 249.966 570.959 249.107 573.230 M 369 654.008 L 369 736.017 424.059 735.758 L 479.118 735.500 479.118 720.500 L 479.118 705.500 441.559 705.238 L 404 704.976 404 687.001 L 404 669.027 437.750 668.763 L 471.500 668.500 471.776 653.250 L 472.052 638 438.026 638 L 404 638 404 620.500 L 404 603 441 603 L 478 603 478 587.500 L 478 572 423.500 572 L 369 572 369 654.008 M 675.460 573.250 C 675.198 573.938, 675.100 610.725, 675.242 655 L 675.500 735.500 693.241 735.773 L 710.981 736.046 711.241 686.638 L 711.500 637.230 748.875 686.615 L 786.250 736 799.625 736 L 813 736 813 654 L 813 572 795.509 572 L 778.019 572 777.759 621.496 L 777.500 670.992 740 621.508 L 702.500 572.024 689.219 572.012 C 679.506 572.003, 675.809 572.336, 675.460 573.250 M 566.402 598.486 C 557.527 600.416, 550.382 604.432, 543.402 611.413 C 533.229 621.586, 528 634.908, 528 650.654 C 528 681.591, 548.855 704.075, 577.460 703.976 C 591.014 703.928, 600.623 700.091, 610.632 690.727 C 624.670 677.596, 630.274 656.121, 625.022 635.585 C 622.378 625.249, 618.735 618.732, 611.509 611.415 C 599.673 599.431, 583.442 594.778, 566.402 598.486 M 259.578 641.779 C 253.594 659.226, 248.492 674.063, 248.242 674.750 C 247.886 675.727, 252.754 676, 270.510 676 L 293.233 676 292.737 673.750 C 291.975 670.292, 271.791 611.597, 271.082 610.779 C 270.739 610.382, 265.562 624.332, 259.578 641.779 M 363 750.639 C 353.080 752.173, 346.130 756.149, 342.009 762.647 C 336.680 771.049, 337.029 781.963, 342.851 789.011 C 346.450 793.367, 352.043 796.196, 367.756 801.607 C 374.508 803.933, 381.487 806.684, 383.263 807.722 C 387.695 810.310, 391 815.518, 391 819.913 C 391 829.490, 382.278 836, 369.446 836 C 357.334 836, 349.388 831.977, 344.940 823.593 C 343.600 821.067, 342.106 819, 341.620 819 C 341.134 819, 339.228 819.932, 337.384 821.072 L 334.032 823.143 336.022 827.044 C 339.188 833.250, 343.877 837.909, 350.135 841.068 C 364.922 848.533, 385.669 845.975, 394.813 835.560 C 398.826 830.990, 401.406 822.384, 400.463 816.713 C 398.606 805.532, 391.449 799.868, 370.500 793.001 C 352.926 787.241, 348.994 784.280, 348.295 776.283 C 347.433 766.419, 354.685 760, 366.689 760 C 376.492 760, 383.116 763.614, 388.115 771.690 L 390.089 774.880 393.794 772.759 C 395.833 771.593, 397.664 770.519, 397.864 770.372 C 398.776 769.703, 393.416 762.661, 388.916 758.614 C 382.412 752.767, 371.316 749.352, 363 750.639 M 686.994 751.934 C 673.825 755.940, 665.905 769.098, 668.971 781.878 C 671.243 791.350, 678.248 796.694, 696 802.499 C 713.570 808.245, 717.500 811.357, 717.500 819.524 C 717.500 828.697, 711.479 833, 698.646 833 C 688.528 833, 681.827 829.623, 677.435 822.310 L 674.370 817.207 669.689 819.854 C 667.114 821.309, 665.006 823.181, 665.004 824.013 C 664.998 826.392, 671.594 835.575, 675.105 838.075 C 688.450 847.578, 710.620 847.419, 721.641 837.742 C 730.919 829.596, 732.573 814.954, 725.313 805.234 C 721.988 800.783, 714.506 796.693, 702 792.493 C 688.309 787.894, 683.938 785.377, 681.694 780.797 C 677.955 773.164, 682.631 765.103, 691.958 763.103 C 701.998 760.949, 711.057 765.156, 716.551 774.525 C 717.537 776.206, 717.894 776.146, 722.301 773.564 C 724.886 772.049, 727 770.480, 727 770.076 C 727 769.673, 725.636 767.283, 723.968 764.766 C 717.893 755.594, 708.639 750.945, 696.739 751.086 C 692.758 751.133, 688.372 751.515, 686.994 751.934 M 189.999 798.750 C 190 823.638, 190 844.337, 190 844.750 C 190 845.163, 201.588 845.500, 215.750 845.500 L 241.500 845.500 241.500 841.191 L 241.500 836.883 220.500 836.691 L 199.500 836.500 199 795.114 L 198.500 753.728 194.249 753.614 L 189.998 753.500 189.999 798.750 M 284.992 754.508 C 284.138 755.538, 250.315 841.651, 249.790 844.131 C 249.576 845.142, 250.773 845.500, 254.369 845.500 L 259.237 845.500 263.477 834.500 L 267.717 823.500 289.736 823.231 L 311.756 822.962 316.151 834.231 L 320.545 845.500 325.396 845.810 C 330.102 846.110, 330.228 846.046, 329.631 843.668 C 328.920 840.834, 296.422 757.195, 295.224 755.114 C 294.286 753.484, 286.235 753.008, 284.992 754.508 M 415.362 754.500 C 415.151 755.050, 415.096 775.750, 415.239 800.500 L 415.500 845.500 443 845.500 L 470.500 845.500 470.807 841.269 L 471.113 837.038 448.307 836.769 L 425.500 836.500 425.225 820.270 L 424.951 804.041 445.725 803.770 L 466.500 803.500 466.807 799.250 L 467.115 795 446.057 795 L 425 795 425 779.019 L 425 763.038 447.250 762.769 L 469.500 762.500 469.500 758.217 L 469.500 753.933 442.623 753.717 C 425.425 753.578, 415.607 753.860, 415.362 754.500 M 488.360 754.500 C 488.150 755.050, 488.096 775.750, 488.239 800.500 L 488.500 845.500 493 845.500 L 497.500 845.500 497.773 827.250 L 498.045 809 510.984 809 L 523.923 809 534.765 827.250 L 545.606 845.500 550.932 845.807 C 555.593 846.075, 556.176 845.902, 555.607 844.419 C 555.250 843.488, 550.224 834.855, 544.439 825.235 C 538.654 815.616, 534.051 807.690, 534.211 807.623 C 542.960 803.911, 547.439 799.981, 551.103 792.798 C 557.513 780.233, 551.786 763.755, 538.545 756.666 C 534.831 754.677, 532.630 754.459, 511.621 754 C 496.825 753.677, 488.607 753.853, 488.360 754.500 M 585 785.818 C 585 820.775, 585.480 824.477, 591.062 832.590 C 594.500 837.588, 601.771 842.431, 608.272 844.056 C 615.013 845.740, 628.412 844.839, 634.051 842.321 C 640.638 839.380, 645.527 834.664, 648.710 828.182 L 651.500 822.500 651.810 788.250 L 652.120 754 646.060 754 L 640 754 640 786.032 C 640 812.596, 639.737 818.693, 638.462 821.746 C 635.129 829.722, 628.928 833.317, 618.500 833.317 C 609.738 833.317, 604.166 830.718, 600.251 824.805 L 597.500 820.650 597.200 787.325 L 596.900 754 590.950 754 L 585 754 585 785.818 M 766.596 755.845 C 765.996 756.815, 735.018 840.569, 734.248 843.301 C 733.791 844.921, 734.377 845.072, 740.078 844.801 L 746.416 844.500 749.849 834.730 L 753.282 824.959 773.293 825.230 L 793.304 825.500 796.788 835.250 L 800.272 845 806.592 845 L 812.911 845 811.569 841.250 C 810.830 839.188, 803.823 820.175, 795.997 799 C 788.170 777.825, 781.326 759.263, 780.786 757.750 C 779.855 755.142, 779.476 755, 773.461 755 C 769.972 755, 766.883 755.380, 766.596 755.845 M 498 781.584 L 498 800.169 514.826 799.834 C 531.142 799.510, 531.776 799.419, 535.705 796.816 C 545.093 790.598, 546.809 776.717, 539.186 768.661 C 534.214 763.405, 532.451 763, 514.550 763 L 498 763 498 781.584 M 288.659 768.224 C 288.331 769.528, 284.281 780.361, 279.658 792.297 L 271.253 814 289.733 814 C 304.088 814, 308.115 813.721, 307.769 812.750 C 304.338 803.103, 290.501 767.290, 289.968 766.677 C 289.575 766.224, 288.986 766.920, 288.659 768.224 M 772 772.015 C 772 772.573, 768.850 781.855, 765 792.641 C 761.150 803.427, 758 812.645, 758 813.126 C 758 813.607, 765.023 814, 773.607 814 C 788.069 814, 789.163 813.872, 788.520 812.250 C 788.138 811.288, 784.646 801.612, 780.760 790.750 C 776.874 779.888, 773.313 771, 772.847 771 C 772.381 771, 772 771.457, 772 772.015" stroke="none" fill="#000000" fill-rule="evenodd"/></svg>